# Blender 5.1.0
# www.blender.org
mtllib Curve.mtl
o NurbsCurve
v -0.750000 0.000000 -0.033333
v -0.640914 0.000000 -0.071528
v -0.523148 0.000000 -0.102778
v -0.398438 0.000000 -0.127083
v -0.268519 0.000000 -0.144445
v -0.135127 0.000000 -0.154861
v 0.000000 0.000000 -0.158333
v 0.135128 0.000000 -0.154861
v 0.268519 0.000000 -0.144445
v 0.398438 0.000000 -0.127083
v 0.523148 0.000000 -0.102778
v 0.640914 0.000000 -0.071528
v 0.750000 0.000000 -0.033333
v -0.750000 0.000000 -0.033333
v -0.640914 0.000000 -0.071528
v -0.523148 0.000000 -0.102778
v -0.398438 0.000000 -0.127083
v -0.268519 0.000000 -0.144445
v -0.135127 0.000000 -0.154861
v 0.000000 0.000000 -0.158333
v 0.135128 0.000000 -0.154861
v 0.268519 0.000000 -0.144445
v 0.398438 0.000000 -0.127083
v 0.523148 0.000000 -0.102778
v 0.640914 0.000000 -0.071528
v 0.750000 0.000000 -0.033333
v -0.750000 1.341272 -0.033333
v -0.640914 1.341272 -0.071528
v -0.523148 1.341272 -0.102778
v -0.398438 1.341272 -0.127083
v -0.268519 1.341272 -0.144445
v -0.135127 1.341272 -0.154861
v 0.000000 1.341272 -0.158333
v 0.135128 1.341272 -0.154861
v 0.268519 1.341272 -0.144445
v 0.398438 1.341272 -0.127083
v 0.523148 1.341272 -0.102778
v 0.640914 1.341272 -0.071528
v 0.750000 1.341272 -0.033333
vn -0.0000 1.0000 -0.0000
vn 0.2337 0.7071 0.6674
vn 0.2076 0.7074 0.6757
vn 0.1584 0.7073 0.6889
vn 0.1145 0.7073 0.6976
vn 0.0744 0.7072 0.7031
vn 0.0366 0.7072 0.7060
vn -0.0000 0.7072 0.7070
vn -0.0366 0.7072 0.7060
vn -0.0744 0.7072 0.7031
vn -0.1145 0.7073 0.6976
vn -0.1584 0.7073 0.6889
vn -0.2076 0.7074 0.6757
vn -0.2337 0.7071 0.6674
vn 0.3305 -0.0000 0.9438
vn 0.2937 -0.0000 0.9559
vn 0.2240 -0.0000 0.9746
vn 0.1619 -0.0000 0.9868
vn 0.1052 -0.0000 0.9945
vn 0.0518 -0.0000 0.9987
vn -0.0000 -0.0000 1.0000
vn -0.0518 -0.0000 0.9987
vn -0.1052 -0.0000 0.9945
vn -0.1619 -0.0000 0.9868
vn -0.2240 -0.0000 0.9746
vn -0.2937 -0.0000 0.9559
vn -0.3305 -0.0000 0.9438
s 1
f 2//1 3//1 16//4 15//3
f 9//1 10//1 23//11 22//10
f 6//1 7//1 20//8 19//7
f 3//1 4//1 17//5 16//4
f 10//1 11//1 24//12 23//11
f 7//1 8//1 21//9 20//8
f 4//1 5//1 18//6 17//5
f 11//1 12//1 25//13 24//12
f 1//1 2//1 15//3 14//2
f 8//1 9//1 22//10 21//9
f 5//1 6//1 19//7 18//6
f 12//1 13//1 26//14 25//13
f 20//8 21//9 34//22 33//21
f 17//5 18//6 31//19 30//18
f 24//12 25//13 38//26 37//25
f 14//2 15//3 28//16 27//15
f 21//9 22//10 35//23 34//22
f 18//6 19//7 32//20 31//19
f 25//13 26//14 39//27 38//26
f 15//3 16//4 29//17 28//16
f 22//10 23//11 36//24 35//23
f 19//7 20//8 33//21 32//20
f 16//4 17//5 30//18 29//17
f 23//11 24//12 37//25 36//24
